<svg width="77" height="63" viewBox="0 0 77 63" fill="none" xmlns="http://www.w3.org/2000/svg">
<path fill-rule="evenodd" clip-rule="evenodd" d="M14.8983 22.3543L14.8921 22.5982L20.1062 33.4692C20.6061 32.9757 24.985 23.4661 25.7049 21.9567C26.6214 20.035 27.5323 18.0661 28.491 16.1284L31.268 10.2766L40.3103 10.2361C40.1047 11.1344 36.2718 18.9233 35.5624 20.4109C32.4885 26.8566 29.0786 34.2807 25.9431 40.5892C24.2737 43.9479 22.7833 47.4886 21.1056 50.7326L20.9409 51.7306C22.0146 53.5055 26.1211 56.8264 28.0108 58.0251C30.7499 59.7625 33.6856 61.1423 37.2838 62.0658C44.9896 64.0436 53.5855 62.7337 59.5727 59.5221C65.3087 56.4452 70.111 51.8373 72.9962 46.1751C83.9533 24.6717 68.5091 0.579373 46.094 0.0109423C31.4683 -0.359975 19.1899 8.73128 14.8983 22.3543Z" fill="#005925"/>
<path fill-rule="evenodd" clip-rule="evenodd" d="M14.8921 22.5984C13.9102 24.4464 13.6272 28.2781 13.5971 30.4328C13.5234 35.6966 15.1811 40.6789 17.4376 45.1255C18.2408 46.708 19.9293 49.5201 21.1056 50.7328C22.7833 47.4888 24.2737 43.948 25.9431 40.5894C29.0785 34.2809 32.4885 26.8568 35.5624 20.4111C36.2718 18.9235 40.1047 11.1346 40.3102 10.2363L31.268 10.2768L28.491 16.1286C27.5324 18.0662 26.6215 20.0352 25.7049 21.9569C24.985 23.4663 20.606 32.976 20.1062 33.4694L14.8921 22.5984Z" fill="white"/>
<path fill-rule="evenodd" clip-rule="evenodd" d="M20.941 51.7303L21.1057 50.7324C19.9296 49.5196 18.2409 46.7076 17.4378 45.125C15.1812 40.6786 13.5235 35.6962 13.5972 30.4324C13.6273 28.2776 13.9104 24.4459 14.8922 22.598L14.8984 22.3541C14.1423 21.5095 9.51803 10.6682 9.01055 10.3262C8.06083 9.98406 1.56491 10.2149 0 10.2395C0.14138 11.2513 16.35 42.9689 18.1428 46.7276C18.5692 47.6215 19.003 48.4728 19.4356 49.3462L20.3978 51.3017C20.6356 51.7275 20.5179 51.6615 20.9409 51.7301L20.941 51.7303Z" fill="#25BA25"/>
<path d="M29.8483 43.3893V41.1914H36.6529V43.3893H29.8483ZM35.0998 35.4135L39.5878 45.2846H36.6791L32.9149 36.5716H33.7046L29.9272 45.2846H27.0186L31.5067 35.4135H35.0998Z" fill="white"/>
<path d="M49.6698 43.3762L48.8274 43.5472V35.4135H51.4729V45.2846H48.0377L42.3387 37.164L43.1679 36.9928V45.2846H40.5225V35.4135H44.0498L49.6698 43.3762Z" fill="white"/>
<path d="M56.0399 35.4135V44.0737L54.8158 42.8629H62.1994V45.2846H53.3154V35.4135H56.0399Z" fill="white"/>
<path d="M64.8712 45.2846V40.4806H67.6088V45.2846H64.8712ZM60.2383 35.4135H63.2654L66.8454 39.9674H65.6214L69.1881 35.4135H72.2153L67.1086 41.9021L65.3581 41.9284L60.2383 35.4135Z" fill="white"/>
<path fill-rule="evenodd" clip-rule="evenodd" d="M29.4874 17.96C32.1393 18.085 34.9002 18.0905 37.5807 18.1378L53.8165 18.4392C56.5517 18.4765 59.3079 18.5158 62.0401 18.5938L62.0537 19.6867L29.9384 20.3051C30.3266 20.4231 45.0857 20.6236 45.9141 20.6401C48.5886 20.6933 51.2692 20.7583 53.9426 20.7907C56.6274 20.8233 59.3684 20.9567 62.0421 20.9363L62.052 22.0324L29.5838 22.6591L62.0453 23.2869L62.0518 24.3829L29.4336 25.0101C32.535 25.1383 35.6985 25.1489 38.8107 25.2038L60.068 25.599C60.7335 25.6119 61.8222 25.5547 62.4146 25.625C63.7882 25.788 65.3081 26.0302 66.6702 26.1323L62.0524 26.138L62.0468 26.7272C56.6448 26.8399 51.2502 26.9578 45.8602 27.0408C43.1716 27.0822 40.485 27.1634 37.7982 27.196C36.8533 27.2074 30.0387 27.2724 29.7383 27.3889C30.0276 27.5573 54.8407 27.9305 58.7321 28.0038C61.9651 28.0646 65.2822 28.2035 68.5048 28.1859C68.5234 27.8943 68.5084 27.7666 68.6007 27.4809C68.633 27.3806 68.6656 27.2989 68.7053 27.2147L68.8883 26.9428C68.8983 27.561 68.926 28.1533 69.2096 28.6079C69.8482 29.6306 72.5929 29.6629 71.9944 26.7058C72.5671 26.761 72.4782 27.6816 72.4537 28.2085C73.1019 28.1864 73.5225 27.8108 73.6862 27.2734C73.8067 26.8777 73.6761 25.7661 73.6352 25.3038C73.5875 24.7652 72.9463 24.657 72.2748 24.5216C71.7929 24.4244 70.7528 24.3843 70.4064 24.201C70.9963 24.1626 71.5481 24.1424 72.1395 24.187C72.6908 24.2286 73.1261 24.3936 73.561 24.443C73.4934 23.6143 72.2104 23.481 71.3864 23.3334C70.9105 23.2481 70.4259 23.1854 69.9417 23.1285C69.5814 23.0861 68.7261 23.0554 68.4491 22.9559L67.8341 21.403L68.9308 21.4037C68.4613 20.5372 66.9394 20.6258 65.7207 20.5312L67.9519 20.317C67.8733 20.073 67.5366 19.898 67.3553 19.6741C66.9574 19.183 65.6159 18.3146 65.03 18.0449C63.4125 17.3005 62.3994 17.3319 60.4965 17.367L29.4875 17.9599L29.4874 17.96ZM64.0624 22.4607L65.0036 22.4549L64.8803 21.0988L63.9673 21.0991L64.0624 22.4607ZM65.5227 22.837L67.954 22.8446L67.2962 21.1964L65.349 21.1935L65.5227 22.837Z" fill="#25BA25"/>
</svg>
